# xmcd
#
# Track frame offsets:
#   150
#   19930
#   38252
#   56385
#   71255
#   90960
#   106607
#   122270
#   139637
#   155700
#
# Disc length: 2309 seconds
#
# Revision: 5
# Processed by: cddbd v1.5PL3 Copyright (c) Steve Scherf et al.
# Submitted via: Media_Universe 3.0
#
DISCID=6709030a,7a08ff0a
DTITLE=Reba McEntire - Read My Mind
DYEAR=1994
DGENRE=Country
TTITLE0=Everything That You Want
TTITLE1=Read My Mind
TTITLE2=I Won't Stand In Line
TTITLE3=I Wish That I Could Tell You
TTITLE4=She Thinks His Name Was John
TTITLE5=Why Haven't I Heard From You
TTITLE6=And Still
TTITLE7=The Heart is A Lonely Hunter
TTITLE8=I Wouldn't Wanna Be You
TTITLE9=Till You Love Me
EXTD=
EXTT0=
EXTT1=
EXTT2=
EXTT3=
EXTT4=
EXTT5=
EXTT6=
EXTT7=
EXTT8=
EXTT9=
PLAYORDER=
